# xmcd
#
# Track frame offsets: 
#        150
#        13037
#        25840
#        39094
#        64700
#        77499
#        91885
#        106414
#        119134
#        133803
#        146256
#        160386
#        170683
#        184612
#        201347
#        216595
#        232681
#        248064
#
# Disc length: 3868 seconds
#
# Revision: 1
# Processed by: cddbd v1.5.2PL0 Copyright (c) Steve Scherf et al.
# Submitted via: ExactAudioCopy v1.0b3
#
DISCID=f30f1a12
DTITLE=Artie Shaw - Concertos For Clarinet_Vol.2 (Rec. 1937-40)
DYEAR=2005
DGENRE=Swing
TTITLE0=Sweet Adeline
TTITLE1=Afraid to Dream
TTITLE2=Chant
TTITLE3=The Blues
TTITLE4=Shoot the Likker to Me, John Boy
TTITLE5=Indian Love Call
TTITLE6=Any Old Time
TTITLE7=Non-Stop Flight
TTITLE8=Softly, As in a Morning Sunrise
TTITLE9=Rosalie
TTITLE10=Pastel Blue
TTITLE11=Traffic Jam
TTITLE12=Frenesi
TTITLE13=Gloomy Sunday
TTITLE14=Summit Ridge Drive
TTITLE15=Star Dust
TTITLE16=Dr Livingstone, I Presume?
TTITLE17=Concerto for Clarinet
EXTD=
EXTT0=
EXTT1=
EXTT2=
EXTT3=
EXTT4=
EXTT5=
EXTT6=
EXTT7=
EXTT8=
EXTT9=
EXTT10=
EXTT11=
EXTT12=
EXTT13=
EXTT14=
EXTT15=
EXTT16=
EXTT17=
PLAYORDER=
